<svg width="50" height="46" viewBox="0 0 50 46" fill="none" xmlns="http://www.w3.org/2000/svg">
<circle cx="22.5" cy="23.5" r="22.5" fill="#FBC02D"/>
<path d="M18.05 0.922652C16.3875 1.55598 13.6958 3.13932 12.1125 4.40598C9.18333 6.78098 4.9875 13.431 4.90833 15.806C4.90833 16.8352 4.275 17.231 2.45417 17.231H0L2.1375 20.9518C3.325 23.0893 4.59167 25.0685 4.90833 25.3852C5.38333 25.9393 10.45 18.8143 10.45 17.6268C10.45 17.3893 9.57917 17.231 8.47083 17.231C6.175 17.231 6.09583 16.5977 7.75833 12.6393C10.3708 6.38515 17.8917 1.39765 24.7 1.39765C28.8958 1.39765 35.3083 4.16848 38.0792 7.17682C39.1083 8.36432 40.2958 9.07682 40.6917 8.83932C41.7208 8.20598 38.3958 4.80182 34.3583 2.42682C30.1625 -0.106515 22.5625 -0.739848 18.05 0.922652ZM6.80833 20.7935C6.09583 21.9018 5.38333 22.7727 5.30417 22.7727C5.225 22.7727 4.5125 21.9018 3.8 20.7935L2.53333 18.8143H5.30417H8.075L6.80833 20.7935Z" fill="black"/>
<path d="M15.9917 20.3977V29.106H24.7H33.4083V20.3977V11.6893H24.7H15.9917V20.3977ZM21.5333 15.0935C21.5333 16.6768 21.9292 16.8352 24.7 16.8352C27.4708 16.8352 27.8667 16.6768 27.8667 15.0935C27.8667 13.6685 28.3417 13.2727 29.8458 13.2727C31.825 13.2727 31.825 13.3518 31.825 20.3977V27.5227H24.7H17.575V20.3977C17.575 13.3518 17.575 13.2727 19.5542 13.2727C21.0583 13.2727 21.5333 13.6685 21.5333 15.0935ZM26.2833 14.0643C26.2833 14.4602 25.5708 14.856 24.7 14.856C23.8292 14.856 23.1167 14.4602 23.1167 14.0643C23.1167 13.5893 23.8292 13.2727 24.7 13.2727C25.5708 13.2727 26.2833 13.5893 26.2833 14.0643Z" fill="black"/>
<path d="M20.3459 20.3976C20.5834 20.7935 22.0875 21.1893 23.5917 21.1893C25.0959 21.1893 26.2834 20.7935 26.2834 20.3976C26.2834 19.9226 24.8584 19.606 23.0375 19.606C21.1375 19.606 20.0292 19.9226 20.3459 20.3976Z" fill="black"/>
<path d="M20.3458 22.7726C20.0292 23.2476 21.6917 23.5643 24.7 23.5643C27.7083 23.5643 29.3708 23.2476 29.0542 22.7726C28.8167 22.2976 26.8375 21.981 24.7 21.981C22.5625 21.981 20.5833 22.2976 20.3458 22.7726Z" fill="black"/>
<path d="M41.4042 18.7351C40.0583 20.9518 38.95 22.931 38.95 23.1685C38.95 23.406 39.8208 23.5643 40.9292 23.5643C43.225 23.5643 43.3042 24.1976 41.8792 27.7601C39.1083 34.331 31.5875 39.3976 24.7 39.3976C20.5042 39.3976 14.0917 36.6268 11.3208 33.6185C10.2917 32.431 9.10418 31.7185 8.70835 31.956C7.60001 32.6685 11.0042 35.9935 15.2 38.4476C18.2083 40.2685 19.7125 40.5851 24.7 40.5851C29.7667 40.5851 31.1917 40.2685 34.2792 38.4476C39.0292 35.6768 41.7208 32.431 43.4625 27.5226C44.7292 24.0393 45.125 23.5643 47.1042 23.5643H49.4L47.2625 19.7643C46.075 17.706 44.8083 15.7268 44.4917 15.4101C44.175 15.0143 42.8292 16.5185 41.4042 18.7351ZM45.6 20.0018L46.8667 21.981H44.0958H41.325L42.5917 20.0018C43.3042 18.8935 44.0167 18.0226 44.0958 18.0226C44.175 18.0226 44.8875 18.8935 45.6 20.0018Z" fill="black"/>
</svg>
