<svg width="50" height="49" viewBox="0 0 50 49" fill="none" xmlns="http://www.w3.org/2000/svg">
<circle cx="22.5" cy="22.5" r="22.5" fill="#FBC02D"/>
<line y1="-0.75" x2="9.69865" y2="-0.75" transform="matrix(0.704807 -0.709399 0.704807 0.709399 30.9698 23.7192)" stroke="black" stroke-width="1.5"/>
<line y1="-0.75" x2="9.69335" y2="-0.75" transform="matrix(-0.757163 -0.653226 0.648353 -0.76134 44.6003 22.6639)" stroke="black" stroke-width="1.5"/>
<path d="M11.3368 11.3455C9.55439 13.1396 9.55439 45.0104 11.3368 46.8045C13.1193 48.5985 46.8807 48.5985 48.6632 46.8045C50.4456 45.0104 50.4456 13.1396 48.6632 11.3455C46.8807 9.55148 13.1193 9.55148 11.3368 11.3455ZM46.1468 13.8783C48.5583 16.3056 48.5583 41.8444 46.1468 44.2717C43.7353 46.6989 16.2647 46.6989 13.8532 44.2717C11.4417 41.8444 11.4417 16.3056 13.8532 13.8783C16.2647 11.4511 43.7353 11.4511 46.1468 13.8783Z" fill="black"/>
</svg>
