<svg width="50" height="48" viewBox="0 0 50 48" fill="none" xmlns="http://www.w3.org/2000/svg">
<path d="M50 25.5C50 37.9264 39.9264 48 27.5 48C15.0736 48 5 37.9264 5 25.5C5 13.0736 15.0736 3 27.5 3C39.9264 3 50 13.0736 50 25.5Z" fill="#FBC02D"/>
<path d="M17.4014 2.19807C17.4014 4.30456 15.295 7.32691 13.9212 7.32691C13.5548 7.32691 12.2726 6.50264 10.9904 5.49518C8.70072 3.75504 8.70072 3.75504 6.22789 6.13629L3.75505 8.51754L5.49519 10.8072C6.50264 11.9978 7.32692 13.3716 7.32692 13.8296C7.32692 15.2949 4.39615 17.4014 2.19808 17.4014C0.27476 17.4014 0 17.7678 0 21.0649C0 24.362 0.27476 24.7284 2.19808 24.7284C4.30457 24.7284 7.32692 26.8348 7.32692 28.2086C7.32692 28.575 6.50264 29.8572 5.49519 31.1394C3.75505 33.4291 3.75505 33.4291 6.1363 35.9019C8.51755 38.3748 8.51755 38.3748 10.7156 36.6346C12.2726 35.444 13.8296 34.9861 15.8445 35.3524C18.5921 35.8103 18.6837 35.8103 17.0351 34.4365C14.7454 32.6048 13.3716 32.6048 10.624 34.3449C8.70072 35.6272 8.42596 35.6272 7.32692 34.3449C6.31947 33.1543 6.41106 32.6048 7.78486 31.1394C10.2577 28.3918 8.70072 24.5452 4.7625 23.3546C0.915865 22.2555 0.824279 19.5995 4.67091 18.7752C8.51755 17.8594 9.98293 14.5623 7.96803 11.082C6.59423 8.70071 6.59423 8.33437 7.78486 7.32691C8.97548 6.41105 9.525 6.50264 10.9904 7.78485C13.738 10.2577 17.493 8.70071 18.6837 4.76249C19.1416 2.93076 20.0575 1.83172 21.0649 1.83172C22.0724 1.83172 22.9882 2.93076 23.4462 4.76249C24.6368 8.70071 28.3918 10.2577 31.1394 7.78485C32.6048 6.50264 33.1543 6.41105 34.345 7.32691C35.5356 8.33437 35.5356 8.70071 34.1618 11.082C32.1469 14.5623 33.6123 17.8594 37.4589 18.7752C41.3055 19.5995 41.3055 22.4387 37.5505 23.263C34.7113 23.8125 31.9637 27.7507 33.4291 29.1245C33.7954 29.4909 34.345 29.2161 34.5281 28.575C35.3524 26.4685 37.6421 24.7284 39.9317 24.7284C41.8551 24.7284 42.1298 24.362 42.1298 21.0649C42.1298 17.7678 41.8551 17.4014 39.9317 17.4014C37.7337 17.4014 34.8029 15.2949 34.8029 13.8296C34.8029 13.3716 35.6272 11.9978 36.6346 10.8072L38.3748 8.51754L35.9019 6.13629C33.4291 3.75504 33.4291 3.75504 31.1394 5.49518C29.8572 6.50264 28.575 7.32691 28.2087 7.32691C26.8349 7.32691 24.7284 4.30456 24.7284 2.19807C24.7284 0.27475 24.362 -9.1452e-06 21.0649 -9.1452e-06C17.7678 -9.1452e-06 17.4014 0.27475 17.4014 2.19807Z" fill="black"/>
<path d="M16.0276 16.0276C13.0053 18.9584 13.0053 23.1714 16.0276 26.1022C18.9584 29.1245 23.1714 29.1245 26.1022 26.1022C30.6815 21.6144 27.4759 13.738 21.0649 13.738C19.3247 13.738 17.4014 14.5623 16.0276 16.0276ZM24.7284 17.4014C25.7358 18.4089 26.5601 20.0574 26.5601 21.0649C26.5601 23.4462 23.4461 26.5601 21.0649 26.5601C18.6836 26.5601 15.5697 23.4462 15.5697 21.0649C15.5697 20.0574 16.394 18.4089 17.4014 17.4014C18.4089 16.394 20.0574 15.5697 21.0649 15.5697C22.0723 15.5697 23.7209 16.394 24.7284 17.4014Z" fill="black"/>
<path d="M40.2981 31.3226C39.8401 32.5132 38.3748 34.6197 37.0925 36.1767L34.7113 38.9243L32.6964 36.6346C31.5974 35.3524 30.0404 33.3375 29.2161 32.0553L27.8423 29.8572L23.9041 33.7954C20.9733 36.7262 20.2406 38.0084 20.9733 38.7411C21.7976 39.5654 22.6219 39.1075 24.362 36.8178C25.6442 35.2608 27.1096 33.887 27.5675 33.887C28.0255 33.887 29.7656 35.7188 31.3226 38.0084C34.6197 42.6793 35.444 42.9541 36.543 40.0233C37.001 38.9243 38.8327 36.4514 40.6644 34.5281C42.5877 32.6964 43.7784 30.6815 43.5036 30.2236C42.5877 28.6666 41.2139 29.2161 40.2981 31.3226Z" fill="black"/>
</svg>
