<svg width="53" height="49" viewBox="0 0 53 49" fill="none" xmlns="http://www.w3.org/2000/svg">
<circle cx="30.5" cy="22.5" r="22.5" fill="#FBC02D"/>
<path d="M0.759625 8.80712C0.189906 9.37684 0 14.7575 0 29.1904V48.814L3.35501 45.5223L6.71002 42.2306H23.4851C35.7024 42.2306 40.45 42.0407 41.0197 41.471C42.0959 40.3949 42.0959 9.88325 41.0197 8.80712C39.9436 7.73098 1.83576 7.73098 0.759625 8.80712ZM40.1968 25.1391V40.6481L23.1053 40.838L6.077 40.9646L3.67152 43.3067L1.26604 45.6489V27.9243C1.26604 18.1125 1.45595 9.94655 1.70916 9.75665C1.96236 9.50344 10.698 9.37684 21.1429 9.44014L40.1968 9.63004V25.1391Z" fill="black"/>
<path d="M3.79816 12.4786C3.79816 12.7952 4.11467 13.1117 4.43118 13.1117C4.81099 13.1117 5.0642 12.7952 5.0642 12.4786C5.0642 12.0988 4.81099 11.8456 4.43118 11.8456C4.11467 11.8456 3.79816 12.0988 3.79816 12.4786Z" fill="black"/>
<path d="M6.3302 12.4786C6.3302 12.7952 6.64671 13.1117 6.96322 13.1117C7.34303 13.1117 7.59624 12.7952 7.59624 12.4786C7.59624 12.0988 7.34303 11.8456 6.96322 11.8456C6.64671 11.8456 6.3302 12.0988 6.3302 12.4786Z" fill="black"/>
<path d="M8.86224 12.4786C8.86224 12.7952 9.17875 13.1117 9.49526 13.1117C9.87508 13.1117 10.1283 12.7952 10.1283 12.4786C10.1283 12.0988 9.87508 11.8456 9.49526 11.8456C9.17875 11.8456 8.86224 12.0988 8.86224 12.4786Z" fill="black"/>
<path d="M11.3944 12.4786C11.3944 12.7952 11.7109 13.1117 12.0274 13.1117C12.4072 13.1117 12.6605 12.7952 12.6605 12.4786C12.6605 12.0988 12.4072 11.8456 12.0274 11.8456C11.7109 11.8456 11.3944 12.0988 11.3944 12.4786Z" fill="black"/>
<path d="M13.9265 12.4786C13.9265 12.7952 14.243 13.1117 14.5595 13.1117C14.9393 13.1117 15.1925 12.7952 15.1925 12.4786C15.1925 12.0988 14.9393 11.8456 14.5595 11.8456C14.243 11.8456 13.9265 12.0988 13.9265 12.4786Z" fill="black"/>
<path d="M16.4586 12.4786C16.4586 12.7952 16.7751 13.1117 17.0916 13.1117C17.4714 13.1117 17.7246 12.7952 17.7246 12.4786C17.7246 12.0988 17.4714 11.8456 17.0916 11.8456C16.7751 11.8456 16.4586 12.0988 16.4586 12.4786Z" fill="black"/>
<path d="M18.9907 12.4786C18.9907 12.7952 19.3072 13.1117 19.6237 13.1117C20.0035 13.1117 20.2567 12.7952 20.2567 12.4786C20.2567 12.0988 20.0035 11.8456 19.6237 11.8456C19.3072 11.8456 18.9907 12.0988 18.9907 12.4786Z" fill="black"/>
<path d="M21.5227 12.4786C21.5227 12.7952 21.8392 13.1117 22.1557 13.1117C22.5355 13.1117 22.7887 12.7952 22.7887 12.4786C22.7887 12.0988 22.5355 11.8456 22.1557 11.8456C21.8392 11.8456 21.5227 12.0988 21.5227 12.4786Z" fill="black"/>
<path d="M24.0548 12.4786C24.0548 12.7952 24.3713 13.1117 24.6878 13.1117C25.0676 13.1117 25.3209 12.7952 25.3209 12.4786C25.3209 12.0988 25.0676 11.8456 24.6878 11.8456C24.3713 11.8456 24.0548 12.0988 24.0548 12.4786Z" fill="black"/>
<path d="M26.5869 12.4786C26.5869 12.7952 26.9034 13.1117 27.2199 13.1117C27.5997 13.1117 27.8529 12.7952 27.8529 12.4786C27.8529 12.0988 27.5997 11.8456 27.2199 11.8456C26.9034 11.8456 26.5869 12.0988 26.5869 12.4786Z" fill="black"/>
<path d="M29.119 12.4786C29.119 12.7952 29.4355 13.1117 29.752 13.1117C30.1318 13.1117 30.385 12.7952 30.385 12.4786C30.385 12.0988 30.1318 11.8456 29.752 11.8456C29.4355 11.8456 29.119 12.0988 29.119 12.4786Z" fill="black"/>
<path d="M31.6511 12.4786C31.6511 12.7952 31.9676 13.1117 32.2841 13.1117C32.6639 13.1117 32.9171 12.7952 32.9171 12.4786C32.9171 12.0988 32.6639 11.8456 32.2841 11.8456C31.9676 11.8456 31.6511 12.0988 31.6511 12.4786Z" fill="black"/>
<path d="M34.1831 12.4786C34.1831 12.7952 34.4996 13.1117 34.8161 13.1117C35.1959 13.1117 35.4491 12.7952 35.4491 12.4786C35.4491 12.0988 35.1959 11.8456 34.8161 11.8456C34.4996 11.8456 34.1831 12.0988 34.1831 12.4786Z" fill="black"/>
<path d="M36.7152 12.4786C36.7152 12.7952 37.0317 13.1117 37.3482 13.1117C37.728 13.1117 37.9813 12.7952 37.9813 12.4786C37.9813 12.0988 37.728 11.8456 37.3482 11.8456C37.0317 11.8456 36.7152 12.0988 36.7152 12.4786Z" fill="black"/>
<path d="M3.79816 15.0107C3.79816 15.3272 4.11467 15.6437 4.43118 15.6437C4.81099 15.6437 5.0642 15.3272 5.0642 15.0107C5.0642 14.6309 4.81099 14.3777 4.43118 14.3777C4.11467 14.3777 3.79816 14.6309 3.79816 15.0107Z" fill="black"/>
<path d="M36.7152 15.0107C36.7152 15.3272 37.0317 15.6437 37.3482 15.6437C37.728 15.6437 37.9813 15.3272 37.9813 15.0107C37.9813 14.6309 37.728 14.3777 37.3482 14.3777C37.0317 14.3777 36.7152 14.6309 36.7152 15.0107Z" fill="black"/>
<path d="M3.79816 17.5428C3.79816 17.8593 4.11467 18.1758 4.43118 18.1758C4.81099 18.1758 5.0642 17.8593 5.0642 17.5428C5.0642 17.163 4.81099 16.9098 4.43118 16.9098C4.11467 16.9098 3.79816 17.163 3.79816 17.5428Z" fill="black"/>
<path d="M36.7152 17.5428C36.7152 17.8593 37.0317 18.1758 37.3482 18.1758C37.728 18.1758 37.9813 17.8593 37.9813 17.5428C37.9813 17.163 37.728 16.9098 37.3482 16.9098C37.0317 16.9098 36.7152 17.163 36.7152 17.5428Z" fill="black"/>
<path d="M12.4705 22.1005C10.8247 26.6583 10.7614 28.3675 12.2806 26.2152C13.3568 24.8225 16.3953 24.8225 17.4714 26.2152C18.9906 28.3675 18.9273 26.6583 17.2815 22.1005C16.3953 19.6318 15.3191 17.5428 14.876 17.5428C14.4329 17.5428 13.3568 19.6318 12.4705 22.1005ZM16.0788 22.4171C16.4586 23.6831 16.332 23.873 14.9393 23.873C13.0403 23.873 13.1036 23.9996 13.9898 21.3409C14.7494 19.1887 15.1925 19.4419 16.0788 22.4171Z" fill="black"/>
<path d="M3.79816 20.0749C3.79816 20.3914 4.11467 20.7079 4.43118 20.7079C4.81099 20.7079 5.0642 20.3914 5.0642 20.0749C5.0642 19.6951 4.81099 19.4419 4.43118 19.4419C4.11467 19.4419 3.79816 19.6951 3.79816 20.0749Z" fill="black"/>
<path d="M36.7152 20.0749C36.7152 20.3914 37.0317 20.7079 37.3482 20.7079C37.728 20.7079 37.9813 20.3914 37.9813 20.0749C37.9813 19.6951 37.728 19.4419 37.3482 19.4419C37.0317 19.4419 36.7152 19.6951 36.7152 20.0749Z" fill="black"/>
<path d="M3.79816 22.607C3.79816 22.9235 4.11467 23.24 4.43118 23.24C4.81099 23.24 5.0642 22.9235 5.0642 22.607C5.0642 22.2272 4.81099 21.9739 4.43118 21.9739C4.11467 21.9739 3.79816 22.2272 3.79816 22.607Z" fill="black"/>
<path d="M36.7152 22.607C36.7152 22.9235 37.0317 23.24 37.3482 23.24C37.728 23.24 37.9813 22.9235 37.9813 22.607C37.9813 22.2272 37.728 21.9739 37.3482 21.9739C37.0317 21.9739 36.7152 22.2272 36.7152 22.607Z" fill="black"/>
<path d="M27.2199 24.1895C27.2199 24.8225 26.5236 25.139 25.0043 25.139C23.8016 25.139 22.7888 25.3923 22.7888 25.7721C22.7888 26.0886 24.3713 26.4051 26.2704 26.4051C29.9419 26.4051 30.2584 26.7216 28.8658 28.6207C28.1061 29.6968 27.8529 29.7601 26.8401 28.9372C25.8273 28.0509 25.764 28.1142 26.2071 29.2537C26.5236 30.1399 26.2704 30.7729 25.1942 31.5326C23.2952 32.9885 23.9282 33.5582 26.1438 32.4188C27.5997 31.6592 28.1061 31.6592 29.5621 32.4188C31.7777 33.5582 32.4107 32.9885 30.4483 31.5326L28.9291 30.3931L30.4483 28.3674C31.2079 27.2913 32.0942 26.4051 32.4107 26.4051C32.6639 26.4051 32.9171 26.0886 32.9171 25.7721C32.9171 25.3923 31.9043 25.139 30.7015 25.139C29.1823 25.139 28.4859 24.8225 28.4859 24.1895C28.4859 23.6831 28.2327 23.24 27.8529 23.24C27.5364 23.24 27.2199 23.6831 27.2199 24.1895Z" fill="black"/>
<path d="M3.79816 25.139C3.79816 25.4556 4.11467 25.7721 4.43118 25.7721C4.81099 25.7721 5.0642 25.4556 5.0642 25.139C5.0642 24.7592 4.81099 24.506 4.43118 24.506C4.11467 24.506 3.79816 24.7592 3.79816 25.139Z" fill="black"/>
<path d="M36.7152 25.139C36.7152 25.4556 37.0317 25.7721 37.3482 25.7721C37.728 25.7721 37.9813 25.4556 37.9813 25.139C37.9813 24.7592 37.728 24.506 37.3482 24.506C37.0317 24.506 36.7152 24.7592 36.7152 25.139Z" fill="black"/>
<path d="M3.79816 27.6711C3.79816 27.9877 4.11467 28.3042 4.43118 28.3042C4.81099 28.3042 5.0642 27.9877 5.0642 27.6711C5.0642 27.2913 4.81099 27.0381 4.43118 27.0381C4.11467 27.0381 3.79816 27.2913 3.79816 27.6711Z" fill="black"/>
<path d="M36.7152 27.6711C36.7152 27.9877 37.0317 28.3042 37.3482 28.3042C37.728 28.3042 37.9813 27.9877 37.9813 27.6711C37.9813 27.2913 37.728 27.0381 37.3482 27.0381C37.0317 27.0381 36.7152 27.2913 36.7152 27.6711Z" fill="black"/>
<path d="M3.79816 30.2032C3.79816 30.5197 4.11467 30.8362 4.43118 30.8362C4.81099 30.8362 5.0642 30.5197 5.0642 30.2032C5.0642 29.8234 4.81099 29.5702 4.43118 29.5702C4.11467 29.5702 3.79816 29.8234 3.79816 30.2032Z" fill="black"/>
<path d="M36.7152 30.2032C36.7152 30.5197 37.0317 30.8362 37.3482 30.8362C37.728 30.8362 37.9813 30.5197 37.9813 30.2032C37.9813 29.8234 37.728 29.5702 37.3482 29.5702C37.0317 29.5702 36.7152 29.8234 36.7152 30.2032Z" fill="black"/>
<path d="M3.79816 32.7353C3.79816 33.0518 4.11467 33.3683 4.43118 33.3683C4.81099 33.3683 5.0642 33.0518 5.0642 32.7353C5.0642 32.3555 4.81099 32.1023 4.43118 32.1023C4.11467 32.1023 3.79816 32.3555 3.79816 32.7353Z" fill="black"/>
<path d="M36.7152 32.7353C36.7152 33.0518 37.0317 33.3683 37.3482 33.3683C37.728 33.3683 37.9813 33.0518 37.9813 32.7353C37.9813 32.3555 37.728 32.1023 37.3482 32.1023C37.0317 32.1023 36.7152 32.3555 36.7152 32.7353Z" fill="black"/>
<path d="M3.79816 35.2674C3.79816 35.5839 4.11467 35.9004 4.43118 35.9004C4.81099 35.9004 5.0642 35.5839 5.0642 35.2674C5.0642 34.8876 4.81099 34.6343 4.43118 34.6343C4.11467 34.6343 3.79816 34.8876 3.79816 35.2674Z" fill="black"/>
<path d="M36.7152 35.2674C36.7152 35.5839 37.0317 35.9004 37.3482 35.9004C37.728 35.9004 37.9813 35.5839 37.9813 35.2674C37.9813 34.8876 37.728 34.6343 37.3482 34.6343C37.0317 34.6343 36.7152 34.8876 36.7152 35.2674Z" fill="black"/>
<path d="M3.79816 37.7995C3.79816 38.116 4.11467 38.4325 4.43118 38.4325C4.81099 38.4325 5.0642 38.116 5.0642 37.7995C5.0642 37.4197 4.81099 37.1665 4.43118 37.1665C4.11467 37.1665 3.79816 37.4197 3.79816 37.7995Z" fill="black"/>
<path d="M6.3302 37.7995C6.3302 38.116 6.64671 38.4325 6.96322 38.4325C7.34303 38.4325 7.59624 38.116 7.59624 37.7995C7.59624 37.4197 7.34303 37.1665 6.96322 37.1665C6.64671 37.1665 6.3302 37.4197 6.3302 37.7995Z" fill="black"/>
<path d="M8.86224 37.7995C8.86224 38.116 9.17875 38.4325 9.49526 38.4325C9.87508 38.4325 10.1283 38.116 10.1283 37.7995C10.1283 37.4197 9.87508 37.1665 9.49526 37.1665C9.17875 37.1665 8.86224 37.4197 8.86224 37.7995Z" fill="black"/>
<path d="M11.3944 37.7995C11.3944 38.116 11.7109 38.4325 12.0274 38.4325C12.4072 38.4325 12.6605 38.116 12.6605 37.7995C12.6605 37.4197 12.4072 37.1665 12.0274 37.1665C11.7109 37.1665 11.3944 37.4197 11.3944 37.7995Z" fill="black"/>
<path d="M13.9265 37.7995C13.9265 38.116 14.243 38.4325 14.5595 38.4325C14.9393 38.4325 15.1925 38.116 15.1925 37.7995C15.1925 37.4197 14.9393 37.1665 14.5595 37.1665C14.243 37.1665 13.9265 37.4197 13.9265 37.7995Z" fill="black"/>
<path d="M16.4586 37.7995C16.4586 38.116 16.7751 38.4325 17.0916 38.4325C17.4714 38.4325 17.7246 38.116 17.7246 37.7995C17.7246 37.4197 17.4714 37.1665 17.0916 37.1665C16.7751 37.1665 16.4586 37.4197 16.4586 37.7995Z" fill="black"/>
<path d="M18.9907 37.7995C18.9907 38.116 19.3072 38.4325 19.6237 38.4325C20.0035 38.4325 20.2567 38.116 20.2567 37.7995C20.2567 37.4197 20.0035 37.1665 19.6237 37.1665C19.3072 37.1665 18.9907 37.4197 18.9907 37.7995Z" fill="black"/>
<path d="M21.5227 37.7995C21.5227 38.116 21.8392 38.4325 22.1557 38.4325C22.5355 38.4325 22.7887 38.116 22.7887 37.7995C22.7887 37.4197 22.5355 37.1665 22.1557 37.1665C21.8392 37.1665 21.5227 37.4197 21.5227 37.7995Z" fill="black"/>
<path d="M24.0548 37.7995C24.0548 38.116 24.3713 38.4325 24.6878 38.4325C25.0676 38.4325 25.3209 38.116 25.3209 37.7995C25.3209 37.4197 25.0676 37.1665 24.6878 37.1665C24.3713 37.1665 24.0548 37.4197 24.0548 37.7995Z" fill="black"/>
<path d="M26.5869 37.7995C26.5869 38.116 26.9034 38.4325 27.2199 38.4325C27.5997 38.4325 27.8529 38.116 27.8529 37.7995C27.8529 37.4197 27.5997 37.1665 27.2199 37.1665C26.9034 37.1665 26.5869 37.4197 26.5869 37.7995Z" fill="black"/>
<path d="M29.119 37.7995C29.119 38.116 29.4355 38.4325 29.752 38.4325C30.1318 38.4325 30.385 38.116 30.385 37.7995C30.385 37.4197 30.1318 37.1665 29.752 37.1665C29.4355 37.1665 29.119 37.4197 29.119 37.7995Z" fill="black"/>
<path d="M31.6511 37.7995C31.6511 38.116 31.9676 38.4325 32.2841 38.4325C32.6639 38.4325 32.9171 38.116 32.9171 37.7995C32.9171 37.4197 32.6639 37.1665 32.2841 37.1665C31.9676 37.1665 31.6511 37.4197 31.6511 37.7995Z" fill="black"/>
<path d="M34.1831 37.7995C34.1831 38.116 34.4996 38.4325 34.8161 38.4325C35.1959 38.4325 35.4491 38.116 35.4491 37.7995C35.4491 37.4197 35.1959 37.1665 34.8161 37.1665C34.4996 37.1665 34.1831 37.4197 34.1831 37.7995Z" fill="black"/>
<path d="M36.7152 37.7995C36.7152 38.116 37.0317 38.4325 37.3482 38.4325C37.728 38.4325 37.9813 38.116 37.9813 37.7995C37.9813 37.4197 37.728 37.1665 37.3482 37.1665C37.0317 37.1665 36.7152 37.4197 36.7152 37.7995Z" fill="black"/>
</svg>
