<svg width="103" height="56" viewBox="0 0 103 56" fill="none" xmlns="http://www.w3.org/2000/svg">
<path d="M63.7895 39.025C65.108 41.0689 67.1539 42.7869 69.6919 43.9815C72.23 45.1762 75.1573 45.799 78.1375 45.7785C84.164 45.7785 88.0145 43.4743 88.0145 40.2925C88.0145 36.4803 84.0578 35.1283 77.4278 32.9085L73.7898 31.7158C63.2965 28.2968 56.3223 24.0133 56.3223 14.9588C56.3223 6.616 64.6353 0.268753 77.6233 0.268753C81.8386 0.0348521 86.0506 0.756377 89.7327 2.34312C93.4147 3.92986 96.4034 6.31141 98.325 9.19L86.9988 14.7508C86.2572 13.3243 84.9655 12.1042 83.2954 11.2526C81.6253 10.401 79.6558 9.95818 77.6488 9.983C76.7739 9.91569 75.8903 9.98853 75.0543 10.1969C74.2183 10.4052 73.4483 10.7445 72.7933 11.1931C72.1383 11.6417 71.6128 12.1897 71.2501 12.8023C70.8875 13.4148 70.6958 14.0784 70.6873 14.7508C70.6873 18.0885 73.3903 19.4373 79.6123 21.5043L83.2503 22.6938C95.6093 26.7465 102.584 30.8773 102.584 40.1658C102.584 50.179 92.2985 55.665 78.4818 55.665C73.0999 55.9268 67.7339 54.9921 63.0312 52.9737C58.3285 50.9553 54.49 47.9395 51.9788 44.29L63.7895 39.025ZM12.4155 40C14.702 43.1005 16.7803 45.72 21.7655 45.72C26.5425 45.72 29.56 44.29 29.56 38.7325V0.918752H44.1035V38.8885C44.1035 50.4033 35.272 55.6455 22.386 55.6455C17.8342 55.8339 13.3145 54.9642 9.42138 53.1508C5.52828 51.3375 2.44425 48.6653 0.575012 45.486L12.4155 40Z" fill="#FBC02D"/>
</svg>
