<svg width="54" height="45" viewBox="0 0 54 45" fill="none" xmlns="http://www.w3.org/2000/svg">
<circle cx="22.5" cy="22.5" r="22.5" fill="#FBC02D"/>
<path d="M11.2415 1.83604C11.0268 2.33684 10.9553 9.99194 11.0268 18.7917L11.2415 34.8889L13.1731 35.1035C14.6755 35.3181 15.1048 35.7474 15.3194 37.2498L15.534 39.1815L23.2607 39.3961C28.1971 39.5392 30.9158 39.3245 30.9158 38.8237C30.9158 38.3945 28.1971 38.1083 23.7615 38.1083C17.108 38.1083 16.6072 38.0368 16.6072 36.6775C16.6072 35.3181 17.108 35.2466 24.4769 35.2466C29.2703 35.2466 32.3466 34.9604 32.3466 34.5312C32.3466 34.1019 29.6995 33.8157 25.9078 33.8157H19.4689V20.938V8.06028H33.7775H48.0861V14.1414C48.0861 17.7186 48.3722 20.2226 48.8015 20.2226C49.2308 20.2226 49.5169 17.5039 49.5169 13.426C49.5169 7.13022 49.5885 6.62942 50.9478 6.62942C52.3071 6.62942 52.3787 7.13022 52.3787 15.2146C52.3787 20.6518 52.6648 23.7997 53.0941 23.7997C53.5949 23.7997 53.8095 20.5803 53.6664 14.6422L53.4518 5.55627L51.5201 5.34164C50.0177 5.12701 49.5885 4.69776 49.3738 3.19535L49.1592 1.26369L30.3434 1.04906C15.534 0.905978 11.4561 1.04906 11.2415 1.83604ZM48.0861 4.48313V6.62942H30.2003H12.3146V4.48313V2.33684H30.2003H48.0861V4.48313ZM18.038 20.938V33.8157H15.1763H12.3146V20.938V8.06028H15.1763H18.038V20.938Z" fill="black"/>
<path d="M13.7455 4.48312C13.7455 4.84083 14.1032 5.19855 14.4609 5.19855C14.8901 5.19855 15.1763 4.84083 15.1763 4.48312C15.1763 4.05386 14.8901 3.76769 14.4609 3.76769C14.1032 3.76769 13.7455 4.05386 13.7455 4.48312Z" fill="black"/>
<path d="M16.6072 4.48312C16.6072 4.84083 16.9649 5.19855 17.3226 5.19855C17.7519 5.19855 18.038 4.84083 18.038 4.48312C18.038 4.05386 17.7519 3.76769 17.3226 3.76769C16.9649 3.76769 16.6072 4.05386 16.6072 4.48312Z" fill="black"/>
<path d="M19.4689 4.48312C19.4689 4.84083 19.8266 5.19855 20.1843 5.19855C20.6136 5.19855 20.8998 4.84083 20.8998 4.48312C20.8998 4.05386 20.6136 3.76769 20.1843 3.76769C19.8266 3.76769 19.4689 4.05386 19.4689 4.48312Z" fill="black"/>
<path d="M45.2244 4.48312C45.2244 4.84083 45.5821 5.19855 45.9398 5.19855C46.3691 5.19855 46.6552 4.84083 46.6552 4.48312C46.6552 4.05386 46.3691 3.76769 45.9398 3.76769C45.5821 3.76769 45.2244 4.05386 45.2244 4.48312Z" fill="black"/>
<path d="M13.7455 10.2066C13.7455 10.5643 14.3893 10.922 15.1763 10.922C15.9633 10.922 16.6072 10.5643 16.6072 10.2066C16.6072 9.77731 15.9633 9.49114 15.1763 9.49114C14.3893 9.49114 13.7455 9.77731 13.7455 10.2066Z" fill="black"/>
<path d="M13.7455 14.4991C13.7455 14.8569 14.3893 15.2146 15.1763 15.2146C15.9633 15.2146 16.6072 14.8569 16.6072 14.4991C16.6072 14.0699 15.9633 13.7837 15.1763 13.7837C14.3893 13.7837 13.7455 14.0699 13.7455 14.4991Z" fill="black"/>
<path d="M13.7455 18.7917C13.7455 19.1494 14.3893 19.5071 15.1763 19.5071C15.9633 19.5071 16.6072 19.1494 16.6072 18.7917C16.6072 18.3625 15.9633 18.0763 15.1763 18.0763C14.3893 18.0763 13.7455 18.3625 13.7455 18.7917Z" fill="black"/>
<path d="M13.7455 23.0843C13.7455 23.442 14.3893 23.7997 15.1763 23.7997C15.9633 23.7997 16.6072 23.442 16.6072 23.0843C16.6072 22.6551 15.9633 22.3689 15.1763 22.3689C14.3893 22.3689 13.7455 22.6551 13.7455 23.0843Z" fill="black"/>
<path d="M13.7455 27.3769C13.7455 27.7346 14.3893 28.0923 15.1763 28.0923C15.9633 28.0923 16.6072 27.7346 16.6072 27.3769C16.6072 26.9476 15.9633 26.6615 15.1763 26.6615C14.3893 26.6615 13.7455 26.9476 13.7455 27.3769Z" fill="black"/>
<path d="M20.8997 10.2066C20.8997 10.5643 22.5452 10.922 24.4769 10.922C26.4801 10.922 28.054 10.5643 28.054 10.2066C28.054 9.77731 26.4801 9.49114 24.4769 9.49114C22.5452 9.49114 20.8997 9.77731 20.8997 10.2066Z" fill="black"/>
<path d="M30.2003 10.2066C30.2003 10.5643 31.8458 10.922 33.7775 10.922C35.7807 10.922 37.3546 10.5643 37.3546 10.2066C37.3546 9.77731 35.7807 9.49114 33.7775 9.49114C31.8458 9.49114 30.2003 9.77731 30.2003 10.2066Z" fill="black"/>
<path d="M39.5009 10.2066C39.5009 10.5643 41.1464 10.922 43.0781 10.922C45.0813 10.922 46.6552 10.5643 46.6552 10.2066C46.6552 9.77731 45.0813 9.49114 43.0781 9.49114C41.1464 9.49114 39.5009 9.77731 39.5009 10.2066Z" fill="black"/>
<path d="M20.8997 15.2146V18.0763H24.4769H28.054V15.2146V12.3529H24.4769H20.8997V15.2146ZM26.6232 15.2146C26.6232 16.3593 26.1224 16.6454 24.4769 16.6454C22.8314 16.6454 22.3306 16.3593 22.3306 15.2146C22.3306 14.0699 22.8314 13.7837 24.4769 13.7837C26.1224 13.7837 26.6232 14.0699 26.6232 15.2146Z" fill="black"/>
<path d="M30.2003 15.2146V18.0763H33.7775H37.3546V15.2146V12.3529H33.7775H30.2003V15.2146ZM35.9238 15.2146C35.9238 16.3593 35.423 16.6454 33.7775 16.6454C32.132 16.6454 31.6312 16.3593 31.6312 15.2146C31.6312 14.0699 32.132 13.7837 33.7775 13.7837C35.423 13.7837 35.9238 14.0699 35.9238 15.2146Z" fill="black"/>
<path d="M39.5009 15.2146V18.0763H43.0781H46.6552V15.2146V12.3529H43.0781H39.5009V15.2146ZM45.2244 15.2146C45.2244 16.3593 44.7236 16.6454 43.0781 16.6454C41.4326 16.6454 40.9318 16.3593 40.9318 15.2146C40.9318 14.0699 41.4326 13.7837 43.0781 13.7837C44.7236 13.7837 45.2244 14.0699 45.2244 15.2146Z" fill="black"/>
<path d="M20.8997 22.3689V25.2306H24.4769H28.054V22.3689V19.5072H24.4769H20.8997V22.3689ZM26.6232 22.3689C26.6232 23.5136 26.1224 23.7997 24.4769 23.7997C22.8314 23.7997 22.3306 23.5136 22.3306 22.3689C22.3306 21.2242 22.8314 20.938 24.4769 20.938C26.1224 20.938 26.6232 21.2242 26.6232 22.3689Z" fill="black"/>
<path d="M30.2003 22.3689V25.2306H33.7775H37.3546V22.3689V19.5072H33.7775H30.2003V22.3689ZM35.9238 22.3689C35.9238 23.5136 35.423 23.7997 33.7775 23.7997C32.132 23.7997 31.6312 23.5136 31.6312 22.3689C31.6312 21.2242 32.132 20.938 33.7775 20.938C35.423 20.938 35.9238 21.2242 35.9238 22.3689Z" fill="black"/>
<path d="M39.5009 20.2226C39.5009 20.5803 41.1464 20.938 43.0781 20.938C45.0813 20.938 46.6552 20.5803 46.6552 20.2226C46.6552 19.7933 45.0813 19.5072 43.0781 19.5072C41.1464 19.5072 39.5009 19.7933 39.5009 20.2226Z" fill="black"/>
<path d="M42.6488 23.2989C42.4342 23.8713 42.3626 27.0191 42.5057 30.3101L42.7203 36.3197H48.0861H53.4518L53.6664 31.741C53.881 27.4484 53.738 27.0191 51.5917 24.8013C49.66 22.7981 48.73 22.3689 46.1544 22.3689C44.2227 22.3689 42.8634 22.7266 42.6488 23.2989ZM48.2292 25.7314C48.3722 27.3053 48.873 27.8061 50.447 27.9492C52.2356 28.1638 52.3786 28.3785 52.3786 31.741V35.2466H48.0861H43.7935V29.5232V23.7997H45.8682C47.6568 23.7997 48.0145 24.0859 48.2292 25.7314ZM50.5901 25.946C50.8047 26.3037 50.6616 26.6614 50.3039 26.6614C49.8746 26.6614 49.5169 26.3037 49.5169 25.946C49.5169 25.5167 49.66 25.2306 49.8031 25.2306C50.0177 25.2306 50.3754 25.5167 50.5901 25.946Z" fill="black"/>
<path d="M45.2244 27.3769C45.2244 27.7346 45.5821 28.0923 45.9398 28.0923C46.3691 28.0923 46.6552 27.7346 46.6552 27.3769C46.6552 26.9476 46.3691 26.6615 45.9398 26.6615C45.5821 26.6615 45.2244 26.9476 45.2244 27.3769Z" fill="black"/>
<path d="M45.2244 30.2386C45.2244 30.5963 46.5121 30.954 48.0861 30.954C49.66 30.954 50.9478 30.5963 50.9478 30.2386C50.9478 29.8094 49.66 29.5232 48.0861 29.5232C46.5121 29.5232 45.2244 29.8094 45.2244 30.2386Z" fill="black"/>
<path d="M45.2244 33.1003C45.2244 33.458 46.5121 33.8157 48.0861 33.8157C49.66 33.8157 50.9478 33.458 50.9478 33.1003C50.9478 32.671 49.66 32.3849 48.0861 32.3849C46.5121 32.3849 45.2244 32.671 45.2244 33.1003Z" fill="black"/>
<path d="M37.2115 27.1623C35.2799 29.237 33.9921 32.3849 34.9937 32.3849C35.3514 32.3849 36.2099 31.3117 36.8538 29.9524C37.4977 28.5931 38.6424 27.3053 39.4294 27.0192C40.2879 26.8045 40.9318 26.2322 40.9318 25.8745C40.9318 24.5867 39.0001 25.2306 37.2115 27.1623Z" fill="black"/>
<path d="M20.8997 29.5232V32.3849H24.4769H28.054V29.5232V26.6615H24.4769H20.8997V29.5232ZM26.6232 29.5232C26.6232 30.6679 26.1224 30.954 24.4769 30.954C22.8314 30.954 22.3306 30.6679 22.3306 29.5232C22.3306 28.3785 22.8314 28.0923 24.4769 28.0923C26.1224 28.0923 26.6232 28.3785 26.6232 29.5232Z" fill="black"/>
<path d="M30.2003 29.5232C30.2003 31.8841 30.415 32.3849 31.6312 32.3849C32.4182 32.3849 33.0621 32.0272 33.0621 31.6695C33.0621 31.2402 32.7759 30.954 32.3466 30.954C31.9889 30.954 31.6312 30.3101 31.6312 29.5232C31.6312 28.7362 32.132 28.0923 32.7044 28.0923C33.2767 28.0923 33.7775 27.7346 33.7775 27.3769C33.7775 26.9476 32.9905 26.6615 31.9889 26.6615C30.415 26.6615 30.2003 26.9476 30.2003 29.5232Z" fill="black"/>
<path d="M36.353 34.8889C36.1384 35.5328 35.4945 35.7474 34.7791 35.4612C33.849 35.1035 33.6344 35.2466 33.9921 36.1767C34.2783 36.8921 33.9921 37.6075 33.2051 38.1083C32.0604 38.7522 32.0604 38.8953 33.2051 39.5392C33.9921 40.04 34.2783 40.7554 33.9921 41.4708C33.6344 42.3294 33.849 42.544 34.7075 42.1863C35.423 41.9001 36.1384 42.1863 36.6392 42.9732C37.2831 44.1179 37.4262 44.1179 38.0701 42.9732C38.5709 42.1863 39.2863 41.9001 40.0017 42.1863C40.8602 42.544 41.0749 42.3294 40.7171 41.4708C40.431 40.7554 40.7171 40.04 41.5041 39.5392C42.6488 38.8953 42.6488 38.7522 41.5041 38.1083C40.7171 37.6075 40.431 36.8921 40.7171 36.1767C41.0749 35.2466 40.8602 35.1035 39.9302 35.4612C39.2147 35.7474 38.5709 35.5328 38.3562 34.8889C38.0701 34.3165 37.6408 33.8157 37.3546 33.8157C37.0685 33.8157 36.6392 34.3165 36.353 34.8889ZM39.1432 38.8238C39.1432 40.1115 38.7139 40.6839 37.4977 40.827C35.7807 41.1131 34.7791 39.5392 35.4945 37.6791C35.7091 37.0352 36.5677 36.6775 37.4977 36.8205C38.7139 36.9636 39.1432 37.536 39.1432 38.8238Z" fill="black"/>
<path d="M46.1544 39.3246C43.5073 40.6839 43.0065 42.0432 45.439 41.3278C47.0845 40.827 50.3039 38.1083 49.1592 38.1799C48.73 38.1799 47.3707 38.7522 46.1544 39.3246Z" fill="black"/>
</svg>
