<svg width="50" height="45" viewBox="0 0 50 45" fill="none" xmlns="http://www.w3.org/2000/svg">
<circle cx="27.5" cy="22.5" r="22.5" fill="#FBC02D"/>
<path d="M0.223401 2.09127C0.0366347 2.74495 -0.0567485 9.56192 0.0366347 17.2193L0.316784 31.2268L8.06759 31.507C13.8574 31.6937 15.725 32.0673 15.725 33.0945C15.725 33.8416 14.6044 34.4952 13.2037 34.682C11.1492 34.8688 10.4956 35.5225 10.3088 37.4835L10.0286 40.0982H21.328H32.6274L32.3472 37.4835C32.1605 35.5225 31.5068 34.8688 29.5457 34.682C28.0516 34.4952 26.931 33.8416 26.931 33.0945C26.931 32.0673 28.7987 31.6937 34.6818 31.507L42.3392 31.2268V16.2855V1.3442L21.5148 1.06405C5.07933 0.877286 0.596934 1.06405 0.223401 2.09127ZM40.9385 13.484V24.2231H21.328H1.71753V13.484V2.74495H21.328H40.9385V13.484ZM40.9385 27.9584C40.9385 29.7327 40.2848 29.8261 21.328 29.8261C2.37121 29.8261 1.71753 29.7327 1.71753 27.9584C1.71753 26.1841 2.37121 26.0908 21.328 26.0908C40.2848 26.0908 40.9385 26.1841 40.9385 27.9584ZM25.0633 33.0945C25.0633 34.1217 24.0361 34.4952 21.328 34.4952C18.6199 34.4952 17.5927 34.1217 17.5927 33.0945C17.5927 32.0673 18.6199 31.6937 21.328 31.6937C24.0361 31.6937 25.0633 32.0673 25.0633 33.0945ZM30.6663 37.2967C30.6663 37.857 26.931 38.2306 21.328 38.2306C15.725 38.2306 11.9897 37.857 11.9897 37.2967C11.9897 36.7364 15.725 36.3629 21.328 36.3629C26.931 36.3629 30.6663 36.7364 30.6663 37.2967Z" fill="black"/>
<path d="M20.4876 13.2973C17.3125 21.7018 17.2191 22.3554 18.4331 22.3554C19.0868 22.3554 25.0633 7.88104 25.0633 6.20014C25.0633 5.82661 24.6898 5.54646 24.2229 5.54646C23.8493 5.54646 22.1684 9.00164 20.4876 13.2973Z" fill="black"/>
<path d="M12.1764 11.1494L10.0286 13.9509L12.1764 16.7524C14.1375 19.4605 15.725 20.3944 15.725 18.7135C15.725 18.2466 15.0713 17.4061 14.3243 16.7524C13.5772 16.0987 12.9235 14.8848 12.9235 13.9509C12.9235 13.0171 13.5772 11.8031 14.3243 11.1494C15.0713 10.4957 15.725 9.6553 15.725 9.18838C15.725 7.50748 14.1375 8.44132 12.1764 11.1494Z" fill="black"/>
<path d="M26.931 9.18838C26.931 9.6553 27.5847 10.4957 28.3317 11.1494C29.0788 11.8031 29.7325 13.0171 29.7325 13.9509C29.7325 14.8848 29.0788 16.0987 28.3317 16.7524C27.5847 17.4061 26.931 18.2466 26.931 18.7135C26.931 20.3944 28.5185 19.4605 30.4796 16.7524L32.6274 13.9509L30.4796 11.1494C28.5185 8.44132 26.931 7.50748 26.931 9.18838Z" fill="black"/>
<path d="M36.2693 27.9584C36.2693 28.4253 36.7362 28.8922 37.2031 28.8922C37.7634 28.8922 38.137 28.4253 38.137 27.9584C38.137 27.3981 37.7634 27.0246 37.2031 27.0246C36.7362 27.0246 36.2693 27.3981 36.2693 27.9584Z" fill="black"/>
</svg>
