<svg width="50" height="47" viewBox="0 0 50 47" fill="none" xmlns="http://www.w3.org/2000/svg">
<circle cx="27.5" cy="22.5" r="22.5" fill="#FBC02D"/>
<path d="M0 11V17H21H42V11V5H21H0V11ZM40 11V15H21H2V11V7H21H40V11Z" fill="black"/>
<path d="M0 33V47H13H26V33V19H13H0V33ZM24 33V45H13H2V33V21H13H24V33Z" fill="black"/>
<path d="M28 23V27H35H42V23V19H35H28V23ZM40 23C40 24.7 39.3 25 35 25C30.7 25 30 24.7 30 23C30 21.3 30.7 21 35 21C39.3 21 40 21.3 40 23Z" fill="black"/>
<path d="M28 33V37H35H42V33V29H35H28V33ZM40 33C40 34.7 39.3 35 35 35C30.7 35 30 34.7 30 33C30 31.3 30.7 31 35 31C39.3 31 40 31.3 40 33Z" fill="black"/>
<path d="M28 43V47H35H42V43V39H35H28V43ZM40 43C40 44.7 39.3 45 35 45C30.7 45 30 44.7 30 43C30 41.3 30.7 41 35 41C39.3 41 40 41.3 40 43Z" fill="black"/>
</svg>
