<svg width="52" height="45" viewBox="0 0 52 45" fill="none" xmlns="http://www.w3.org/2000/svg">
<circle cx="29.5" cy="22.5" r="22.5" fill="#FBC02D"/>
<path d="M32.1775 2.07396C31.7388 3.65017 30.7737 4.31383 27.5274 5.06045C24.6321 5.80707 23.1406 6.71961 22.0877 8.37877C20.6839 10.7846 20.6839 10.7846 11.4716 10.7846C5.41775 10.7846 1.82054 11.1164 1.11864 11.7801C-0.372881 13.1903 -0.372881 31.607 1.11864 33.0173C2.61017 34.4276 41.3898 34.4276 42.8814 33.0173C44.3729 31.607 44.3729 13.1903 42.8814 11.7801C42.1795 11.1164 38.5823 10.7846 32.3529 10.7846C27.001 10.7846 22.8774 10.4527 22.8774 10.0379C22.8774 8.79356 26.5623 6.63665 28.5803 6.63665C29.6331 6.63665 31.1246 6.13891 31.9143 5.5582C33.5813 4.39679 34.8973 1.45622e-05 33.5813 1.45622e-05C33.1426 1.45622e-05 32.4407 0.912553 32.1775 2.07396ZM41.7408 22.3987V31.9388H22H2.25922L1.99601 23.3112C1.90828 18.4996 1.99601 14.1029 2.17149 13.5222C2.61017 12.6096 6.55833 12.4437 22.1755 12.6096L41.7408 12.8585V22.3987Z" fill="black"/>
<path d="M4.45264 17.4212C4.45264 18.4996 5.06679 19.0804 6.20737 19.0804C7.34795 19.0804 7.96211 18.4996 7.96211 17.4212C7.96211 16.3427 7.34795 15.762 6.20737 15.762C5.06679 15.762 4.45264 16.3427 4.45264 17.4212Z" fill="black"/>
<path d="M9.71686 17.4212C9.71686 18.4996 10.331 19.0804 11.4716 19.0804C12.6122 19.0804 13.2263 18.4996 13.2263 17.4212C13.2263 16.3427 12.6122 15.762 11.4716 15.762C10.331 15.762 9.71686 16.3427 9.71686 17.4212Z" fill="black"/>
<path d="M14.9811 17.4212C14.9811 18.4996 15.5952 19.0804 16.7358 19.0804C17.8764 19.0804 18.4906 18.4996 18.4906 17.4212C18.4906 16.3427 17.8764 15.762 16.7358 15.762C15.5952 15.762 14.9811 16.3427 14.9811 17.4212Z" fill="black"/>
<path d="M20.2453 17.4212C20.2453 18.4996 20.8595 19.0804 22 19.0804C23.1406 19.0804 23.7548 18.4996 23.7548 17.4212C23.7548 16.3427 23.1406 15.762 22 15.762C20.8595 15.762 20.2453 16.3427 20.2453 17.4212Z" fill="black"/>
<path d="M25.5095 17.4212C25.5095 18.4996 26.1237 19.0804 27.2643 19.0804C28.4048 19.0804 29.019 18.4996 29.019 17.4212C29.019 16.3427 28.4048 15.762 27.2643 15.762C26.1237 15.762 25.5095 16.3427 25.5095 17.4212Z" fill="black"/>
<path d="M30.7737 17.4212C30.7737 18.4996 31.3878 19.0804 32.5284 19.0804C33.669 19.0804 34.2832 18.4996 34.2832 17.4212C34.2832 16.3427 33.669 15.762 32.5284 15.762C31.3878 15.762 30.7737 16.3427 30.7737 17.4212Z" fill="black"/>
<path d="M36.0379 17.4212C36.0379 18.4996 36.6521 19.0804 37.7926 19.0804C38.9332 19.0804 39.5474 18.4996 39.5474 17.4212C39.5474 16.3427 38.9332 15.762 37.7926 15.762C36.6521 15.762 36.0379 16.3427 36.0379 17.4212Z" fill="black"/>
<path d="M4.45264 22.3987C4.45264 23.726 5.06679 24.0578 7.52342 24.0578C9.98005 24.0578 10.5942 23.726 10.5942 22.3987C10.5942 21.0713 9.98005 20.7395 7.52342 20.7395C5.06679 20.7395 4.45264 21.0713 4.45264 22.3987Z" fill="black"/>
<path d="M12.349 22.3987C12.349 23.4771 12.9632 24.0578 14.1037 24.0578C15.2443 24.0578 15.8585 23.4771 15.8585 22.3987C15.8585 21.3202 15.2443 20.7395 14.1037 20.7395C12.9632 20.7395 12.349 21.3202 12.349 22.3987Z" fill="black"/>
<path d="M17.6132 22.3987C17.6132 23.4771 18.2273 24.0578 19.3679 24.0578C20.5085 24.0578 21.1226 23.4771 21.1226 22.3987C21.1226 21.3202 20.5085 20.7395 19.3679 20.7395C18.2273 20.7395 17.6132 21.3202 17.6132 22.3987Z" fill="black"/>
<path d="M22.8774 22.3987C22.8774 23.4771 23.4915 24.0578 24.6321 24.0578C25.7727 24.0578 26.3869 23.4771 26.3869 22.3987C26.3869 21.3202 25.7727 20.7395 24.6321 20.7395C23.4915 20.7395 22.8774 21.3202 22.8774 22.3987Z" fill="black"/>
<path d="M28.1416 22.3987C28.1416 23.4771 28.7558 24.0578 29.8963 24.0578C31.0369 24.0578 31.6511 23.4771 31.6511 22.3987C31.6511 21.3202 31.0369 20.7395 29.8963 20.7395C28.7558 20.7395 28.1416 21.3202 28.1416 22.3987Z" fill="black"/>
<path d="M33.4058 22.3987C33.4058 23.726 34.02 24.0578 36.4766 24.0578C38.9332 24.0578 39.5474 23.726 39.5474 22.3987C39.5474 21.0713 38.9332 20.7395 36.4766 20.7395C34.02 20.7395 33.4058 21.0713 33.4058 22.3987Z" fill="black"/>
<path d="M4.45264 27.3761C4.45264 28.4546 5.06679 29.0353 6.20737 29.0353C7.34795 29.0353 7.96211 28.4546 7.96211 27.3761C7.96211 26.2977 7.34795 25.717 6.20737 25.717C5.06679 25.717 4.45264 26.2977 4.45264 27.3761Z" fill="black"/>
<path d="M9.71686 27.3761C9.71686 28.4546 10.331 29.0353 11.4716 29.0353C12.6122 29.0353 13.2263 28.4546 13.2263 27.3761C13.2263 26.2977 12.6122 25.717 11.4716 25.717C10.331 25.717 9.71686 26.2977 9.71686 27.3761Z" fill="black"/>
<path d="M14.9811 27.3761C14.9811 28.8694 15.5952 29.0353 22 29.0353C28.4048 29.0353 29.019 28.8694 29.019 27.3761C29.019 25.8829 28.4048 25.717 22 25.717C15.5952 25.717 14.9811 25.8829 14.9811 27.3761Z" fill="black"/>
<path d="M30.7737 27.3761C30.7737 28.4546 31.3878 29.0353 32.5284 29.0353C33.669 29.0353 34.2832 28.4546 34.2832 27.3761C34.2832 26.2977 33.669 25.717 32.5284 25.717C31.3878 25.717 30.7737 26.2977 30.7737 27.3761Z" fill="black"/>
<path d="M36.0379 27.3761C36.0379 28.4546 36.6521 29.0353 37.7926 29.0353C38.9332 29.0353 39.5474 28.4546 39.5474 27.3761C39.5474 26.2977 38.9332 25.717 37.7926 25.717C36.6521 25.717 36.0379 26.2977 36.0379 27.3761Z" fill="black"/>
</svg>
