<svg width="53" height="52" viewBox="0 0 53 52" fill="none" xmlns="http://www.w3.org/2000/svg">
<circle cx="22.5" cy="29.5" r="22.5" fill="#FBC02D"/>
<path d="M26 2.4C24.5 4.1 23.9 5.7 24.2 7.4C24.7 9.9 24.5 10 20.4 10C16.7 10 16 10.3 15.5 12.2C12.5 25.2 9 40.9 9 41.4C9 41.7 18.9 42 31 42C43.1 42 53 41.7 53 41.4C53 40.9 49.5 25.2 46.5 12.2C46 10.3 45.3 10 41.6 10C37.5 10 37.3 9.9 37.8 7.4C38.4 4.1 34.6 -6.25849e-07 31 -6.25849e-07C29.5 -6.25849e-07 27.4 0.999999 26 2.4ZM34.5 3.6C35.4 4.5 36 6.2 35.8 7.4C35.5 9.2 34.8 9.5 31 9.5C27.2 9.5 26.5 9.2 26.2 7.4C25.6 3 31.2 0.399999 34.5 3.6ZM47.6 26.2L50.7 40H31H11.3L14.2 27.2C15.7 20.2 17.2 13.9 17.5 13.2C17.8 12.3 21.2 12 31.2 12.2L44.5 12.5L47.6 26.2Z" fill="black"/>
</svg>
